<svg width="150" height="29" viewBox="0 0 150 29" fill="none" xmlns="http://www.w3.org/2000/svg">
<g clip-path="url(#clip0_1_7)">
<path d="M52.2776 17.0121L52.3113 18.1779C52.2642 18.4946 52.1496 18.9596 51.9677 19.566C51.7857 20.1725 51.5027 20.8127 51.1321 21.5C50.7547 22.1873 50.2696 22.841 49.6766 23.4676C49.0836 24.0943 48.3558 24.6065 47.4865 25.0108C46.6173 25.4083 45.593 25.6105 44.407 25.6105C43.4704 25.6105 42.5539 25.4959 41.651 25.2668C40.748 25.0377 39.9326 24.6536 39.2049 24.1213C38.4771 23.5822 37.8908 22.8612 37.4596 21.9447C37.0283 21.035 36.8127 19.8827 36.8127 18.4879V8.18463H41.2601V17.7331C41.2601 18.8315 41.4353 19.6873 41.7925 20.314C42.1429 20.9407 42.6685 21.3787 43.3491 21.6348C44.0364 21.8841 44.845 22.0121 45.7817 22.0121C47.0148 22.0121 48.0728 21.7426 48.9623 21.2102C49.8518 20.6779 50.5795 20.0175 51.1388 19.2426C51.6981 18.4676 52.0822 17.7264 52.2844 17.0189L52.2776 17.0121ZM56.4892 25.1927H52.0418V8.18463H56.4892V25.1995V25.1927Z" fill="#1E293B"/>
<path d="M60.5256 8.18461H64.9731V25.1994H60.5256V8.18461ZM72.8841 7.80725C73.9353 7.80725 74.9057 7.94202 75.7952 8.2183C76.6847 8.49458 77.4596 8.91237 78.12 9.48515C78.7804 10.0579 79.2925 10.7789 79.6631 11.6617C80.027 12.5377 80.2089 13.5822 80.2089 14.7951V25.1994H75.7615V15.5835C75.7615 14.1482 75.4111 13.0903 74.717 12.4164C74.0229 11.7426 72.8841 11.4056 71.314 11.4056C70.1281 11.4056 69.0566 11.6347 68.0998 12.093C67.1429 12.5512 66.368 13.124 65.775 13.818C65.182 14.5121 64.8383 15.2399 64.7507 15.9946L64.717 14.2493C64.8316 13.4474 65.0944 12.6725 65.5054 11.9245C65.9165 11.1698 66.469 10.4825 67.1631 9.85577C67.8572 9.22908 68.686 8.73043 69.6429 8.36655C70.5998 8.00267 71.6847 7.82073 72.8976 7.82073L72.8841 7.80725Z" fill="#1E293B"/>
<path d="M86.7453 8.18463C87.9717 8.18463 88.969 9.18194 88.969 10.4083V25.1927H84.5216V10.4083C84.5216 9.18194 85.5189 8.18463 86.7453 8.18463Z" fill="#1E293B"/>
<path d="M92.7358 19.5458H96.8464C97.0957 20.3207 97.6145 20.9542 98.403 21.4461C99.1914 21.938 100.222 22.1806 101.503 22.1806C102.372 22.1806 103.046 22.0997 103.524 21.938C104.003 21.7763 104.333 21.5471 104.515 21.2372C104.697 20.9272 104.791 20.5835 104.791 20.1927C104.791 19.7143 104.643 19.3436 104.346 19.0808C104.05 18.818 103.592 18.6091 102.978 18.4474C102.365 18.2857 101.577 18.1374 100.62 18.0027C99.6631 17.8409 98.7399 17.6523 97.8504 17.4232C96.9609 17.194 96.1725 16.8908 95.4919 16.5134C94.8046 16.1361 94.2655 15.6577 93.8679 15.0781C93.4703 14.4986 93.2682 13.7843 93.2682 12.942C93.2682 12.0997 93.4703 11.3922 93.8679 10.752C94.2655 10.1118 94.8248 9.57949 95.5458 9.14148C96.2668 8.71022 97.1092 8.38003 98.0795 8.15092C99.0499 7.92181 100.094 7.80725 101.213 7.80725C102.904 7.80725 104.306 8.04984 105.425 8.54175C106.543 9.03367 107.379 9.71426 107.938 10.597C108.497 11.473 108.774 12.4838 108.774 13.6294H104.838C104.656 12.787 104.292 12.1738 103.74 11.7965C103.194 11.4191 102.345 11.2304 101.206 11.2304C100.067 11.2304 99.2453 11.3989 98.6725 11.7426C98.0997 12.0862 97.8167 12.5512 97.8167 13.1442C97.8167 13.6226 97.9919 13.9932 98.349 14.256C98.6995 14.5188 99.2251 14.7277 99.9259 14.8895C100.62 15.0512 101.496 15.2196 102.547 15.4016C103.437 15.5835 104.286 15.7924 105.094 16.0148C105.903 16.2439 106.631 16.5337 107.271 16.8841C107.911 17.2412 108.416 17.7062 108.794 18.2857C109.171 18.8652 109.36 19.6064 109.36 20.4959C109.36 21.5943 109.043 22.5175 108.416 23.2655C107.79 24.0202 106.894 24.593 105.728 24.9973C104.562 25.3949 103.174 25.597 101.55 25.597C100.115 25.597 98.8747 25.442 97.8369 25.132C96.7992 24.8221 95.9367 24.4245 95.2561 23.9326C94.5687 23.4407 94.0431 22.9151 93.6658 22.3558C93.2884 21.7965 93.0323 21.2641 92.8976 20.7655C92.7628 20.2668 92.7156 19.8558 92.7628 19.5323L92.7358 19.5458Z" fill="#1E293B"/>
<path d="M128.235 19.5458H132.547C132.365 20.7116 131.88 21.7493 131.092 22.659C130.303 23.5687 129.239 24.2897 127.891 24.8153C126.543 25.3409 124.899 25.6037 122.965 25.6037C120.795 25.6037 118.881 25.2533 117.217 24.5593C115.553 23.8652 114.252 22.8544 113.315 21.5269C112.379 20.2062 111.914 18.6091 111.914 16.7358C111.914 14.8625 112.372 13.2587 113.282 11.9245C114.191 10.5903 115.465 9.56601 117.096 8.85846C118.726 8.15091 120.64 7.80051 122.83 7.80051C125.02 7.80051 126.927 8.15765 128.41 8.85846C129.892 9.56601 130.997 10.6307 131.712 12.0593C132.433 13.4878 132.736 15.3072 132.621 17.5175H116.395C116.509 18.3868 116.833 19.1752 117.372 19.876C117.911 20.5835 118.639 21.1428 119.562 21.5539C120.485 21.9649 121.584 22.1671 122.864 22.1671C124.279 22.1671 125.458 21.9245 126.408 21.4326C127.352 20.9407 127.965 20.3072 128.241 19.5323L128.235 19.5458ZM122.621 11.1967C120.977 11.1967 119.643 11.5539 118.619 12.2749C117.594 12.9959 116.927 13.8787 116.631 14.9299H128.201C128.086 13.7911 127.547 12.8814 126.577 12.2075C125.606 11.5337 124.286 11.1967 122.621 11.1967Z" fill="#1E293B"/>
<path d="M136.274 1.33826H140.721V25.1994H136.274V1.33826Z" fill="#1E293B"/>
<path d="M145.553 1.33826H150V25.1994H145.553V1.33826Z" fill="#1E293B"/>
<path d="M86.6038 6.02829C88.245 6.02829 89.5755 4.69782 89.5755 3.0566C89.5755 1.41537 88.245 0.0848999 86.6038 0.0848999C84.9626 0.0848999 83.6321 1.41537 83.6321 3.0566C83.6321 4.69782 84.9626 6.02829 86.6038 6.02829Z" fill="#1E293B"/>
<path d="M29.5491 7.07277L27.6488 2.30862C27.1097 0.960911 25.8227 0.0848999 24.3739 0.0848999H5.60702C4.1515 0.0848999 2.86444 0.954172 2.33209 2.30862L0.431822 7.07277C-0.309418 8.93261 -0.0803078 11.035 1.04503 12.686C1.46956 13.3194 2.00864 13.8517 2.61511 14.2695V18.8517C2.61511 24.4447 8.15419 29 14.9601 29C21.7661 29 27.3051 24.4515 27.3051 18.8517V14.3032C27.9386 13.8787 28.4911 13.3396 28.9359 12.686C30.0612 11.0283 30.2903 8.93261 29.5491 7.07277ZM21.0181 3.63611L24.3469 3.62264L26.2472 8.38679C26.5572 9.16172 26.4628 9.9973 25.9979 10.6914C25.5329 11.3787 24.7849 11.7763 23.9493 11.7763H23.4979C22.1367 11.7763 21.0248 10.6644 21.0248 9.30323V3.63611H21.0181ZM12.514 3.63611H17.4601V9.29649C17.4601 10.6577 16.3483 11.7695 14.9871 11.7695C13.6259 11.7695 12.514 10.6577 12.514 9.29649V3.64285V3.63611ZM3.73371 8.38679L5.62724 3.63611H8.96282V9.29649C8.96282 10.6577 7.85096 11.7695 6.48977 11.7695H6.03829C5.20271 11.7695 4.46147 11.372 3.98977 10.6846C3.52481 9.9973 3.43047 9.15498 3.74045 8.38005L3.73371 8.38679ZM14.9601 25.442C10.1151 25.442 6.16632 22.4838 6.16632 18.8517V15.3342H6.48303C8.14071 15.3342 9.64341 14.6604 10.7351 13.5755C11.8267 14.6604 13.3294 15.3342 14.9871 15.3342C16.6448 15.3342 18.1475 14.6604 19.2391 13.5755C20.3307 14.6604 21.8334 15.3342 23.4911 15.3342H23.7539V18.8517C23.7539 22.4838 19.8119 25.442 14.9601 25.442Z" fill="url(#paint0_linear_1_7)"/>
</g>
<defs>
<linearGradient id="paint0_linear_1_7" x1="14.9871" y1="28.8046" x2="14.9871" y2="1.05525" gradientUnits="userSpaceOnUse">
<stop stop-color="#E11D48"/>
<stop offset="0.15" stop-color="#DD1F4A"/>
<stop offset="0.29" stop-color="#D22653"/>
<stop offset="0.42" stop-color="#BF3261"/>
<stop offset="0.56" stop-color="#A44375"/>
<stop offset="0.69" stop-color="#825990"/>
<stop offset="0.81" stop-color="#5874AF"/>
<stop offset="0.94" stop-color="#2894D5"/>
<stop offset="1" stop-color="#0EA5E9"/>
</linearGradient>
<clipPath id="clip0_1_7">
<rect width="150" height="28.9151" fill="white" transform="translate(0 0.0848999)"/>
</clipPath>
</defs>
</svg>
