<svg width="30" height="29" viewBox="0 0 30 29" fill="none" xmlns="http://www.w3.org/2000/svg">
<path d="M29.5461 6.98787L27.6459 2.22372C27.1068 0.876011 25.8197 0 24.3709 0H5.60409C4.14857 0 2.86151 0.869272 2.32916 2.22372L0.428892 6.98787C-0.312348 8.84771 -0.0832375 10.9501 1.0421 12.6011C1.46663 13.2345 2.00571 13.7668 2.61218 14.1846V18.7668C2.61218 24.3598 8.15126 28.9151 14.9572 28.9151C21.7631 28.9151 27.3022 24.3666 27.3022 18.7668V14.2183C27.9356 13.7938 28.4882 13.2547 28.9329 12.6011C30.0583 10.9434 30.2874 8.84771 29.5461 6.98787ZM21.0151 3.55121L24.344 3.53774L26.2443 8.30189C26.5542 9.07682 26.4599 9.9124 25.9949 10.6065C25.53 11.2938 24.782 11.6914 23.9464 11.6914H23.4949C22.1337 11.6914 21.0219 10.5795 21.0219 9.21833V3.55121H21.0151ZM12.5111 3.55121H17.4572V9.21159C17.4572 10.5728 16.3453 11.6846 14.9841 11.6846C13.623 11.6846 12.5111 10.5728 12.5111 9.21159V3.55795V3.55121ZM3.73078 8.30189L5.62431 3.55121H8.95989V9.21159C8.95989 10.5728 7.84803 11.6846 6.48684 11.6846H6.03536C5.19978 11.6846 4.45854 11.2871 3.98684 10.5997C3.52188 9.9124 3.42754 9.07008 3.73752 8.29515L3.73078 8.30189ZM14.9572 25.3571C10.1122 25.3571 6.16339 22.3989 6.16339 18.7668V15.2493H6.4801C8.13778 15.2493 9.64048 14.5755 10.7321 13.4906C11.8238 14.5755 13.3265 15.2493 14.9841 15.2493C16.6418 15.2493 18.1445 14.5755 19.2362 13.4906C20.3278 14.5755 21.8305 15.2493 23.4882 15.2493H23.751V18.7668C23.751 22.3989 19.8089 25.3571 14.9572 25.3571Z" fill="url(#paint0_linear_113_465)"/>
<defs>
<linearGradient id="paint0_linear_113_465" x1="14.9841" y1="28.7197" x2="14.9841" y2="0.970349" gradientUnits="userSpaceOnUse">
<stop stop-color="#E11D48"/>
<stop offset="0.15" stop-color="#DD1F4A"/>
<stop offset="0.29" stop-color="#D22653"/>
<stop offset="0.42" stop-color="#BF3261"/>
<stop offset="0.56" stop-color="#A44375"/>
<stop offset="0.69" stop-color="#825990"/>
<stop offset="0.81" stop-color="#5874AF"/>
<stop offset="0.94" stop-color="#2894D5"/>
<stop offset="1" stop-color="#0EA5E9"/>
</linearGradient>
</defs>
</svg>
